<?xml version="1.0" encoding="utf-8"?>
<!-- Generator: Adobe Illustrator 25.2.3, SVG Export Plug-In . SVG Version: 6.00 Build 0)  -->
<svg version="1.1" id="Layer_1" xmlns="http://www.w3.org/2000/svg" xmlns:xlink="http://www.w3.org/1999/xlink" x="0px" y="0px"
	 viewBox="0 0 792 612" style="enable-background:new 0 0 792 612;" xml:space="preserve">
<style type="text/css">
	.st0{fill:#31AFA5;}
</style>
<g>
	<g>
		<path class="st0" d="M213.3,181c9,0,17.4,1.7,25.3,5.1c7.9,3.4,14.8,8.1,20.6,14.1c5.8,6,10.4,12.8,13.9,20.6
			c3.4,7.8,5.1,16.1,5.1,25.1v99.3H83.5V372h194.6v68.4H79.9c-9,0-17.3-1.7-25.1-5.1c-7.8-3.4-14.6-8.1-20.6-14.1
			c-6-6-10.7-12.8-14.1-20.6c-3.5-7.8-5.1-16.1-5.1-25.1V245.8c0-9,1.7-17.3,5.1-25.1c3.4-7.8,8.1-14.6,14.1-20.6
			c6-6,12.8-10.6,20.6-14.1c7.8-3.4,16.1-5.1,25.1-5.1h133.3V181z M209.6,285.3v-35.8H83.5v35.8H209.6z"/>
	</g>
	<path class="st0" d="M623.9,325H678v-17.5h-54.1V325z M674.3,270.9h-50.3v15.9h50.3V270.9z M713,181.4H261.7
		c5.5,3.3,10.6,7.2,15,11.7c6.7,6.8,12,14.7,15.9,23.5c4,9.1,6,18.9,6,29.2v195h472.1v-200C770.8,240.8,770.5,181.4,713,181.4z
		 M458,345.7h-95.4v-95.5h20.6V325H458V345.7z M574.6,345.7h-20.8v-30.7h-54.1v30.7h-20.6v-75.8c0-2.7,0.5-5.3,1.5-7.7
		c1-2.4,2.4-4.5,4.1-6.2c1.8-1.8,3.8-3.1,6.2-4.2c2.4-1,4.9-1.5,7.7-1.5h56.1c2.7,0,5.3,0.5,7.7,1.5c2.4,1,4.5,2.4,6.2,4.2
		c1.8,1.8,3.2,3.8,4.2,6.2c1,2.4,1.6,4.9,1.6,7.7L574.6,345.7L574.6,345.7z M698.8,326.1c0,2.7-0.5,5.3-1.6,7.7
		c-1,2.4-2.5,4.5-4.2,6.2c-1.8,1.7-3.8,3.1-6.2,4.1c-2.4,1-5,1.5-7.7,1.5h-75.7v-95.4h72.1c2.7,0,5.2,0.5,7.6,1.5
		c2.4,1,4.5,2.4,6.3,4.2s3.3,3.8,4.2,6.2c1,2.4,1.5,4.9,1.5,7.7v17.9c0,2.5-0.3,4.5-0.9,6.1c1.3,1.7,2.4,3.6,3.3,5.8
		c0.9,2.1,1.3,4.4,1.3,6.7L698.8,326.1L698.8,326.1z M499.8,294.3h54.1v-23.3h-54.1V294.3z"/>
</g>
</svg>
